<svg version="1.1" id="Capa_1" xmlns="http://www.w3.org/2000/svg" xmlns:xlink="http://www.w3.org/1999/xlink" x="0px" y="0px"
      	 viewBox="0 0 24 24" style="enable-background:new 0 0 24 24;" xml:space="preserve">
    <g>
    <path class="cbe_st0 cbe_linea" d="M2.2,10.4c0.9-5.4,6-9.1,11.4-8.2c3,0.5,5.5,2.3,7,4.8"/>
    </g>
    <g class="cbe_telefonos">
    <path class="cbe_st1" d="M14.1,13.2l-1.4,1.4c-0.7-0.3-1.4-0.8-1.9-1.4c-0.6-0.6-1-1.2-1.4-1.9l1.4-1.4L10.4,7H7.1c-0.3,1.9,0.1,3.8,1,5.6
        c0.4,0.7,0.9,1.3,1.4,1.9c0.6,0.6,1.2,1,1.9,1.4c1.7,1,3.7,1.3,5.6,1v-3.3L14.1,13.2z"/>
    <path class="cbe_st1_01" d="M14.1,13.2l-1.4,1.4c-0.7-0.3-1.4-0.8-1.9-1.4c-0.6-0.6-1-1.2-1.4-1.9l1.4-1.4L10.4,7H7.1c-0.3,1.9,0.1,3.8,1,5.6
        c0.4,0.7,0.9,1.3,1.4,1.9c0.6,0.6,1.2,1,1.9,1.4c1.7,1,3.7,1.3,5.6,1v-3.3L14.1,13.2z"/>
    </g>
    <g class="cbe_opacidad_triangulo">
    <polygon class="cbe_st1 cbe_triangulo" points="17.6,7.3 21.8,10.7 22.7,5.4 	"/>
    </g>
    <circle class="cbe_st1 cicle_trans_01" cx="2.2" cy="13.6" r="1.1"/>
    <circle class="cbe_st1 cicle_trans_02" cx="4.5" cy="18.5" r="1.1"/>
    <circle class="cbe_st1 cicle_trans_03" cx="9" cy="21.4" r="1.1"/>
    <circle class="cbe_st1 cicle_trans_04" cx="14.4" cy="21.6" r="1.1"/>
    <circle class="cbe_st1 cicle_trans_05" cx="19.1" cy="18.9" r="1.1"/>
    <circle class="cbe_st1 cicle_trans_06" cx="21.6" cy="14.2" r="1.1"/>
</svg>