<svg version="1.1" id="Layer_1" xmlns="http://www.w3.org/2000/svg" xlinkHref="http://www.w3.org/1999/xlink" x="0px" y="0px"
	 viewBox="0 0 40 40" enableBackground="new 0 0 40 40" xmlSpace="preserve">
<g>
	<g>
		<path className="borderIconHeader" d="M21.4,38.9c-0.9,0-1.9-0.6-1.9-1.5V28h-1.9c-0.9,0-1.2-1-1.2-1.8v-4.5c0-0.9,0.4-1.5,1.2-1.5h2.3c0,0,0-1.1,0-1.6
			c0-0.6,0-1.3,0.2-1.9c0.3-1.9,1.2-3.3,2.6-4.3c1.2-0.8,2.6-1.3,4.2-1.3h0.4c0.6,0,1.3,0,1.9,0.1h0.2c0.4,0,0.7,0.1,1,0.1h0.2
			c0.8,0.1,1.3,0.7,1.3,1.5v4c0,0.9-0.6,1.6-1.5,1.6h-1.6c-0.3,0-0.6,0-0.9,0c-0.2,0-0.3,0-0.4,0c0,0,0,0.1,0,0.2c0,0.4,0,1.6,0,1.6
			h2.8c0.4,0,0.9,0.2,1.2,0.5s0.4,0.8,0.4,1.2c-0.2,1.5-0.4,3.1-0.6,4.6c0,0.8-0.7,1.5-1.5,1.5h-2.6v9.4c0,0.9-0.3,1.5-1.2,1.5H21.4
			z"/>
		<path className="iconHeader" d="M27.9,16.8c0.8,0,1.5,0,2.3,0c0.1,0,0.2,0,0.3,0v-4c-0.4,0-0.8-0.1-1.3-0.1c-0.8,0-1.6-0.1-2.4-0.1
			c-1.2,0-2.3,0.3-3.3,1c-1.1,0.8-1.8,2-2,3.3c-0.1,0.6-0.1,1.1-0.1,1.7c0,0.9,0,1.8,0,2.7v0.3h-3.8v4.5h3.8v11.2H26V26.2h3.8
			c0.2-1.5,0.4-3,0.6-4.5c-0.3,0-0.6,0-0.9,0c-1.1,0-3.5,0-3.5,0s0-2.2,0-3.2C26.1,17.3,26.9,16.8,27.9,16.8z"/>
	</g>
</g>
</svg>